<svg width="8" height="11" viewBox="0 0 8 11" fill="none" xmlns="http://www.w3.org/2000/svg">
<path d="M7.59668 7.34082C7.59668 8.31152 7.27767 9.03158 6.63965 9.50098C6.00618 9.96582 5.13346 10.1982 4.02148 10.1982C3.22852 10.1982 2.55632 10.0547 2.00488 9.76758C1.45801 9.47591 1.06836 9.10905 0.835938 8.66699L2.3877 7.60742C2.55632 7.86719 2.76595 8.07682 3.0166 8.23633C3.26725 8.39583 3.60905 8.47559 4.04199 8.47559C4.58887 8.47559 4.98535 8.37077 5.23145 8.16113C5.4821 7.9515 5.60742 7.63021 5.60742 7.19727C5.60742 6.32227 5.02865 5.88477 3.87109 5.88477H3.03027V4.23047H3.76172C4.34049 4.23047 4.76204 4.11654 5.02637 3.88867C5.29069 3.66081 5.42285 3.36458 5.42285 3C5.42285 2.73112 5.32715 2.50781 5.13574 2.33008C4.94434 2.15234 4.62988 2.06348 4.19238 2.06348C3.75488 2.06348 3.40397 2.13411 3.13965 2.27539C2.87988 2.41211 2.65658 2.62174 2.46973 2.9043L0.931641 1.82422C1.30534 1.31836 1.75651 0.944662 2.28516 0.703125C2.81836 0.461588 3.50195 0.34082 4.33594 0.34082C4.9694 0.34082 5.52083 0.44108 5.99023 0.641602C6.46419 0.837565 6.82194 1.111 7.06348 1.46191C7.30501 1.81283 7.42578 2.21387 7.42578 2.66504C7.42578 3.90007 6.78776 4.6748 5.51172 4.98926C6.13607 5.03027 6.63965 5.26725 7.02246 5.7002C7.40527 6.12858 7.59668 6.67546 7.59668 7.34082Z" fill="white"/>
</svg>
